<?xml version="1.0" encoding="UTF-8" standalone="no"?>
<!DOCTYPE svg PUBLIC "-//W3C//DTD SVG 1.1//EN" "http://www.w3.org/Graphics/SVG/1.1/DTD/svg11.dtd">
<svg width="100%" height="100%" viewBox="0 0 4278 3706" version="1.1" xmlns="http://www.w3.org/2000/svg" xmlns:xlink="http://www.w3.org/1999/xlink" xml:space="preserve" xmlns:serif="http://www.serif.com/" style="fill-rule:evenodd;clip-rule:evenodd;stroke-linejoin:round;stroke-miterlimit:2;">
    <g transform="matrix(1,0,0,1,0,-252)">
        <g id="Artboard1" transform="matrix(1,0,0,1,720.148,827.836)">
            <rect x="-720.148" y="-575.836" width="4277.97" height="3705.28" style="fill:none;"/>
            <g id="Ñëîé-1" serif:id="Ñëîé 1" transform="matrix(1,0,0,1,0.852256,0.164147)">
                <g id="curve7" transform="matrix(1,0,0,-1,0,-212.076)">
                    <path d="M2719.91,-942.218C2486.23,-1382.29 2138.42,-1573.36 1341.14,-1536.68C1341.14,-1536.68 2104.18,-1665.68 2616.27,-1512.61C2686.74,-1491.55 2752.43,-1465.15 2810.72,-1432.35L2810.72,-746.397C2782.04,-816.425 2752.06,-881.679 2719.91,-942.218Z" style="fill-rule:nonzero;"/>
                </g>
                <g id="curve6" transform="matrix(1,0,0,-1,0,628.116)">
                    <path d="M239.462,-723.545C201.323,-743.027 164.854,-765.124 130.366,-789.998C82.773,-824.36 39.005,-864.039 0,-909.596L0,-978.493C30.705,-940.454 64.213,-906.233 100.078,-875.53C429.376,-593.391 956.504,-606.579 1329,-663.382C1329.06,-662.961 1329.09,-662.543 1329.15,-662.127C1329.42,-659.47 1329.76,-656.827 1330.15,-654.182C1177.93,-620.487 1008.78,-598.523 840.097,-598.522C627.585,-598.519 415.815,-633.375 239.462,-723.545Z" style="fill-rule:nonzero;"/>
                </g>
                <g id="curve5" transform="matrix(1,0,0,-1,0,-189.87)">
                    <path d="M315.381,-1383.48C261.318,-1394.43 209.022,-1409.54 158.888,-1429.58C103.132,-1451.86 49.999,-1480.25 0,-1515.81L0,-1682.74C40.615,-1642.07 82.449,-1606.8 125.374,-1576.38C478.913,-1325.78 906.863,-1402.83 1342.88,-1479.88C1778.52,-1556.87 2222.22,-1633.86 2607.77,-1384.01C2641.93,-1361.87 2675.66,-1337.16 2708.87,-1309.65C2743.39,-1281.07 2777.36,-1249.47 2810.72,-1214.59C2810.72,-1204.92 2813.4,-1184.36 2818,-1156.03L2818,-707.127C2291.03,-1448.52 1072.89,-1230.07 315.381,-1383.48Z" style="fill-rule:nonzero;"/>
                </g>
                <g id="curve4" transform="matrix(1,0,0,-1,0,328.933)">
                    <path d="M2711.46,-818.963C2264.9,-1200.79 1685.48,-1048.49 1144.04,-896.195C708.474,-773.677 297.476,-651.162 0,-806.718L0,-930.49C301.418,-701.218 816.89,-841.02 1378.88,-980.814C1859.49,-1100.37 2374.16,-1219.9 2818,-1108.62L2818,-723.698C2785.88,-758.607 2744.99,-790.291 2711.46,-818.963Z" style="fill-rule:nonzero;"/>
                </g>
                <g id="curve3" transform="matrix(1,0,0,-1,0,713.829)">
                    <path d="M0,-165.582C53.061,-201.284 106.466,-236.16 160.227,-270.058C202.053,-296.411 244.028,-322.164 286.28,-347.261C1030.35,-789.469 1953.03,-1301.71 2818,-939.284L2818,-691.858C2808.39,-645.464 2803.03,-609.547 2810.72,-605.802L2810.72,-516.446C2810.72,-516.446 2809.99,-517.026 2808.5,-518.142C2751.41,-561.062 1606.33,-1390.76 0,-95.411L0,-165.582Z" style="fill-rule:nonzero;"/>
                </g>
                <g id="curve2" transform="matrix(1,0,0,-1,0,433.186)">
                    <path d="M1403.42,-912.229C1024.04,-1063.18 628.483,-1214.14 178.492,-1167.6C119.924,-1161.54 60.477,-1152.15 0,-1138.99L0,-1153.11C57.655,-1166.71 114.666,-1176.41 171.156,-1182.68C604.537,-1230.75 1004.91,-1076.2 1391.46,-921.655C1873.66,-728.858 2334.34,-536.062 2810.72,-736.62L2810.72,-726.338C2665.92,-671.121 2525.32,-648.273 2386.94,-648.281C2054.44,-648.299 1735.08,-780.264 1403.42,-912.229Z" style="fill-rule:nonzero;"/>
                </g>
                <g id="curve1" transform="matrix(-0.025726,-0.999669,-0.999669,0.025726,1856.39,-347.153)">
                    <path d="M-1938.75,-904.756C-737.685,205.168 -2070.53,1257.81 -1922.81,1916.29L-1938.75,1916.7C-2055.68,1268.91 -746.876,151.818 -1955.26,-904.332L-1938.75,-904.756Z" style="fill:rgb(173,191,33);fill-rule:nonzero;"/>
                </g>
            </g>
        </g>
    </g>
</svg>
